<svg width="78" height="64" fill="none" xmlns="http://www.w3.org/2000/svg"><path fill-rule="evenodd" clip-rule="evenodd" d="M32.783 10.576c-.656.058-1.807.23-2.557.38-.75.152-2.064.507-2.92.79-.854.284-2.153.814-2.885 1.18-.732.364-1.832.995-2.445 1.402-.614.406-1.714 1.327-2.445 2.046-.804.79-1.614 1.746-2.05 2.418-.395.61-.899 1.521-1.12 2.024-.22.503-.49 1.296-.6 1.763-.109.467-.248 1.08-.307 1.365l-.109.516-1.242.176c-.684.097-1.842.376-2.575.62-.733.243-1.766.66-2.296.925-.53.265-1.405.777-1.946 1.137-.541.36-1.61 1.278-2.373 2.04-.765.76-1.686 1.824-2.048 2.362a21.68 21.68 0 0 0-1.12 1.894 20.98 20.98 0 0 0-.855 2.024c-.217.61-.502 1.61-.634 2.22-.178.824-.24 1.667-.24 3.265s.062 2.442.24 3.265c.132.61.417 1.61.634 2.22.216.61.6 1.522.855 2.024.254.503.758 1.355 1.12 1.894.362.539 1.283 1.602 2.048 2.363.764.76 1.832 1.678 2.373 2.039.541.36 1.397.861 1.902 1.114.505.252 1.36.618 1.901.812.541.195 1.486.468 2.099.607.66.15 1.904.287 3.05.336l1.934.082v-2.782l-.82-.003c-.45 0-1.35-.058-2-.127a18.376 18.376 0 0 1-2.23-.398c-.577-.15-1.587-.527-2.245-.836-.658-.31-1.573-.816-2.033-1.124-.46-.309-1.293-1.001-1.851-1.539s-1.315-1.41-1.682-1.938a18.498 18.498 0 0 1-1.239-2.167c-.314-.663-.695-1.676-.846-2.25a19.456 19.456 0 0 1-.415-2.319c-.099-.903-.099-1.643 0-2.546.077-.7.264-1.744.415-2.318.15-.575.53-1.585.844-2.246.313-.66.796-1.542 1.073-1.959.277-.416.917-1.192 1.422-1.723.505-.531 1.301-1.257 1.77-1.613.47-.355 1.502-.961 2.295-1.346.794-.385 1.915-.823 2.492-.972.578-.15 1.699-.332 2.492-.407.794-.075 1.573-.187 1.731-.25.159-.064.388-.268.51-.453.138-.21.265-.794.334-1.538.061-.66.234-1.58.384-2.04.15-.463.424-1.14.61-1.505.185-.365.558-.987.828-1.382.27-.395.855-1.088 1.298-1.539a18.646 18.646 0 0 1 1.835-1.58c.566-.417 1.611-1.056 2.324-1.42a25.111 25.111 0 0 1 2.651-1.13c.746-.258 1.927-.59 2.623-.739.85-.18 1.98-.293 3.431-.34 1.633-.052 2.475-.018 3.43.138.697.114 1.76.36 2.362.549.601.187 1.625.594 2.274.904.65.31 1.565.812 2.033 1.114.47.303 1.304.925 1.856 1.383a19.78 19.78 0 0 1 1.787 1.713 28.363 28.363 0 0 1 1.504 1.882A21.96 21.96 0 0 1 50.8 23.32a24.82 24.82 0 0 1 1.133 2.636c.26.744.596 1.948.749 2.677.19.912.303 2.071.36 3.72l.084 2.394.406.36c.342.306.567.376 1.442.452.57.05 1.42.184 1.89.298.468.114 1.227.375 1.684.58.458.205 1.204.637 1.659.96.454.322 1.141.935 1.528 1.361.386.427.905 1.109 1.152 1.517.247.407.614 1.205.816 1.773.201.568.429 1.532.505 2.144a8.49 8.49 0 0 1 .003 2.202 12.45 12.45 0 0 1-.465 2.052c-.18.529-.574 1.374-.875 1.877-.3.505-.965 1.333-1.476 1.842-.512.51-1.344 1.171-1.85 1.47a12.1 12.1 0 0 1-1.884.871c-.53.18-1.441.386-2.025.46-.583.072-2.022.132-3.196.132h-2.134v2.769l3.115-.06c2.618-.05 3.274-.102 4.117-.33.552-.15 1.424-.45 1.937-.668.514-.218 1.361-.67 1.883-1.004.522-.334 1.452-1.115 2.068-1.735.616-.62 1.394-1.568 1.73-2.107.335-.538.79-1.428 1.01-1.976.22-.549.501-1.401.625-1.894.16-.64.225-1.437.225-2.79 0-1.352-.065-2.15-.225-2.788a17.097 17.097 0 0 0-.568-1.764 17.506 17.506 0 0 0-.95-1.91c-.416-.718-1.016-1.452-1.919-2.351-.903-.9-1.64-1.496-2.36-1.911a17.959 17.959 0 0 0-1.962-.963 13.885 13.885 0 0 0-1.967-.567l-1.075-.213c-.012-.002-.088-.798-.17-1.768-.082-.97-.269-2.35-.415-3.069a27.171 27.171 0 0 0-.727-2.677 28.866 28.866 0 0 0-1.158-2.808c-.384-.79-1.035-1.936-1.448-2.546a30.89 30.89 0 0 0-1.58-2.102 24.495 24.495 0 0 0-1.715-1.815 26.106 26.106 0 0 0-1.889-1.566 25.457 25.457 0 0 0-2.04-1.334c-.569-.326-1.449-.773-1.955-.993a25.655 25.655 0 0 0-1.909-.721 22.159 22.159 0 0 0-2.03-.533 28.078 28.078 0 0 0-2.354-.337c-.722-.069-1.607-.119-1.968-.111-.36.008-1.192.062-1.849.12Zm-1.758 23.612c-.468.046-.97.152-1.114.235-.145.083-1.9 1.79-3.902 3.794l-3.64 3.644-.004.904c-.002.498 0 5.129.004 10.29.005 6.193.054 9.473.144 9.64.074.138.323.365.553.505.404.245.747.254 10.357.254 8.205 0 10.016-.031 10.377-.181.241-.1.534-.32.652-.487.194-.276.214-1.554.214-14.062V34.965l-.383-.382-.384-.381h-5.633c-3.099 0-5.804-.022-6.01-.05-.208-.026-.762-.01-1.23.036Zm10.886 14.575v11.819H25.123v-15.28h7.502l.447-.444.445-.444v-7.47h8.394v11.819Zm-11.206-6.371c-.05.128-.644.168-2.527.168h-2.462l2.49-2.483 2.492-2.483.035 2.315c.02 1.273.007 2.39-.028 2.483Zm-.224 6.785c-1.606 1.592-2.489 2.563-2.54 2.795-.043.198.008.56.116.817.11.264.364.55.59.667.22.112.523.204.676.204.152 0 .406-.065.564-.145.157-.08.714-.563 1.237-1.074l.95-.93v3.243c0 2.681.037 3.317.208 3.676.118.247.394.522.642.64.24.113.507.206.593.206.087 0 .354-.093.594-.206.248-.118.524-.393.642-.64.171-.36.207-.995.207-3.676v-3.242l.951.929c.523.51 1.08.994 1.237 1.074.158.08.412.145.564.145.153 0 .457-.092.675-.204.226-.117.48-.403.59-.665.149-.353.161-.556.054-.878-.09-.27-.992-1.265-2.539-2.797-2.38-2.357-2.405-2.377-2.975-2.377-.57 0-.593.018-3.036 2.439Z" fill="#9BC0FF"/><path d="M73.839 21.404c-1.66-3.435-7.891-2.87-7.891-2.87 3.844-2.19 3.108-7.752 3.06-8.08 1.682 4.848 7.488 3.778 8.008 3.672-3.855.918-3.177 7.278-3.177 7.278Zm-10.805 7.05c-1.054-2.184-5.018-1.824-5.018-1.824 2.509-1.44 1.94-5.145 1.94-5.145v.021c1.077 3.065 4.76 2.385 5.087 2.319-2.44.586-2.01 4.63-2.01 4.63Z" fill="#9BC0FF"/><path opacity=".22" d="m71.414 10.58-1.148.365C75.236 8.102 74.284.88 74.224.455c.078.342 1.235 5.108.604 6.673-.787 1.955-3.414 3.452-3.414 3.452ZM63.2 19.3c-.606.815-3.019 2.07-3.183 2.154 3.244-1.87 2.509-6.681 2.509-6.681v.028c.128.33 1.266 3.703.675 4.5Z" fill="#C5DAFC"/></svg>